<svg xmlns="http://www.w3.org/2000/svg" viewBox="0 0 416 412.92"><title>Asset 1</title><g id="Layer_2" data-name="Layer 2"><g id="Layer_1-2" data-name="Layer 1"><path d="M147.68,222.4h155A40.81,40.81,0,0,0,339,200.56l74.88-128.8A24.4,24.4,0,0,0,416,61.36c0-11.44-9.36-19.76-20.8-19.76H87.36L67.6,0H0V41.6H41.6l74.88,151.68-31.3,50.95A39.84,39.84,0,0,0,80,264c0,27.85,19,41.6,44.82,41.6H368v-40H129.89a4.92,4.92,0,0,1-5.2-5.2c0-1,2.21-5.2,2.21-5.2Z"/><circle cx="126.5" cy="366.42" r="46.5"/><circle cx="344.5" cy="366.42" r="46.5"/></g></g></svg>